<svg aria-hidden="true" style="position: absolute; width: 0; height: 0; overflow: hidden;" version="1.1" xmlns="http://www.w3.org/2000/svg" xmlns:xlink="http://www.w3.org/1999/xlink">
<defs>
<symbol id="icon-x" viewBox="0 0 32 32">
<path stroke-linejoin="round" stroke-linecap="round" stroke-miterlimit="4" stroke-width="2.1818" d="M24 8l-16 16M8 8l16 16"></path>
</symbol>
<symbol id="icon-burger" viewBox="0 0 47 32">
<path stroke-linejoin="miter" stroke-linecap="round" stroke-miterlimit="4" stroke-width="3.2" d="M8.742 5.188h36.591M8.742 24.581h36.591M19.965 14.885h25.369"></path>
</symbol>
<symbol id="icon-arrow" viewBox="0 0 32 32">
<path d="M27.765 17.956c-0.173-1.303-0.285-2.467-0.337-3.489-0.021-1.040 0.019-1.94 0.12-2.7l-25.295 14.603-1.197-2.072 25.295-14.604c-0.961-0.442-1.756-0.874-2.521-1.351l0.095 0.055c-1.126-0.735-2.047-1.389-2.943-2.073l0.118 0.086 1.52-0.877c3.208 1.349 6.143 2.024 8.803 2.023l0.513 0.888c-1.351 2.271-2.233 5.149-2.651 8.636l-1.519 0.876z"></path>
</symbol>
<symbol id="icon-facebook" viewBox="0 0 32 32">
<path d="M19.52 4.64h0.96v3.6h-1.2c-0.48 0-0.96 0-1.2 0.24s-0.24 0.48-0.24 1.040v1.28h2.64v3.040h-2.64v13.2h-4.080v-13.28h-2.16v-3.040h2.16v-1.040c0-1.76 0.24-3.040 0.72-3.6 0.72-1.040 2.16-1.52 4.32-1.52 0.24 0.080 0.48 0.080 0.72 0.080z"></path>
</symbol>
<symbol id="icon-instagram" viewBox="0 0 32 32">
<path d="M28.718 10.755c-0.016-1.134-0.233-2.212-0.617-3.207l0.021 0.063c-0.682-1.722-2.021-3.059-3.7-3.722l-0.044-0.015c-0.921-0.356-1.985-0.573-3.097-0.596l-0.010-0c-1.367-0.061-1.801-0.078-5.271-0.078-3.472 0-3.917 0-5.274 0.078-1.063 0.023-2.112 0.223-3.106 0.597-1.723 0.678-3.062 2.015-3.727 3.693l-0.015 0.044c-0.357 0.919-0.574 1.981-0.595 3.091l-0 0.009c-0.062 1.367-0.080 1.8-0.080 5.265 0 3.466 0 3.909 0.080 5.265 0.021 1.063 0.222 2.11 0.594 3.104 0.682 1.721 2.022 3.058 3.701 3.721l0.044 0.015c0.917 0.369 1.98 0.6 3.091 0.637l0.015 0c1.369 0.062 1.803 0.080 5.274 0.080 3.472 0 3.917 0 5.274-0.080 1.122-0.023 2.187-0.239 3.172-0.616l-0.064 0.022c1.722-0.68 3.061-2.016 3.727-3.693l0.016-0.044c0.374-0.993 0.575-2.040 0.595-3.103 0.062-1.366 0.080-1.799 0.080-5.266-0.002-3.465-0.002-3.905-0.082-5.264zM15.989 22.531c-0.002 0-0.004 0-0.006 0-3.625 0-6.563-2.937-6.566-6.561v-0c0.002-3.624 2.94-6.561 6.565-6.561 0.002 0 0.005 0 0.007 0h-0c3.629 0 6.571 2.937 6.571 6.56-0.003 3.625-2.942 6.562-6.567 6.562-0.002 0-0.003 0-0.005 0h0zM22.823 10.696c-0.845 0-1.53-0.685-1.53-1.53s0.685-1.53 1.53-1.53v0c0.012-0 0.027-0.001 0.042-0.001 0.845 0 1.53 0.685 1.53 1.53s-0.685 1.53-1.53 1.53c-0.015 0-0.029-0-0.044-0.001l0.002 0z"></path>
<path d="M15.992 19.976c0.020 0 0.044 0.001 0.068 0.001 2.212 0 4.005-1.793 4.005-4.005s-1.793-4.005-4.005-4.005c-0.024 0-0.048 0-0.071 0.001l0.004-0c-2.182 0.038-3.937 1.816-3.937 4.004s1.755 3.966 3.933 4.004l0.004 0z"></path>
</symbol>
<symbol id="icon-youtube" viewBox="0 0 32 32">
<path d="M24.24 6c-1.36-0.080-4.16-0.16-8.4-0.16h-0.56c-4.080 0-6.8 0.080-8.16 0.24-1.84 0.16-3.12 0.64-3.84 1.28-0.64 0.56-1.12 1.6-1.28 2.96-0.080 0.88-0.16 2.72-0.16 5.52v0.4c0 2.64 0.080 4.48 0.24 5.36 0.24 1.28 0.64 2.24 1.44 2.8 0.8 0.64 2.16 1.040 4.080 1.2 1.36 0.080 4.16 0.16 8.4 0.16h0.56c4.080 0 6.8-0.080 8.16-0.24 1.84-0.16 3.12-0.64 3.84-1.28 0.64-0.56 1.12-1.6 1.28-2.96 0.080-0.88 0.16-2.72 0.16-5.52v-0.4c0-2.64-0.080-4.48-0.24-5.36-0.24-1.28-0.64-2.24-1.44-2.8-0.8-0.64-2.16-1.040-4.080-1.2zM21.12 15.84l-8.8 5.28v-10.56l8.8 5.28z"></path>
</symbol>
<symbol id="icon-star" viewBox="0 0 32 32">
<path d="M15.685 0.184c0.064-0.11 0.181-0.182 0.315-0.182s0.251 0.072 0.314 0.18l0.001 0.002 2.207 3.831c0.064 0.11 0.181 0.182 0.315 0.182 0.077 0 0.148-0.024 0.206-0.064l-0.001 0.001 3.69-2.517c0.057-0.040 0.128-0.063 0.205-0.063 0.192 0 0.35 0.149 0.363 0.339l0 0.001 0.287 4.371c0.013 0.19 0.17 0.34 0.363 0.34 0.020 0 0.040-0.002 0.059-0.005l-0.002 0 4.43-0.7c0.017-0.003 0.037-0.004 0.057-0.004 0.201 0 0.364 0.163 0.364 0.364 0 0.050-0.010 0.098-0.029 0.141l0.001-0.002-1.673 4.045c-0.017 0.041-0.028 0.089-0.028 0.139 0 0.165 0.109 0.304 0.259 0.348l0.003 0.001 4.284 1.245c0.153 0.045 0.262 0.185 0.262 0.349 0 0.108-0.047 0.205-0.122 0.272l-0 0-3.299 2.932c-0.075 0.067-0.122 0.164-0.122 0.272s0.047 0.205 0.122 0.272l0 0 3.299 2.932c0.075 0.067 0.122 0.164 0.122 0.272 0 0.165-0.109 0.304-0.26 0.349l-0.003 0.001-4.284 1.245c-0.153 0.045-0.262 0.185-0.262 0.349 0 0.050 0.010 0.098 0.028 0.141l-0.001-0.002 1.673 4.045c0.017 0.041 0.028 0.089 0.028 0.139 0 0.201-0.163 0.364-0.364 0.364-0.020 0-0.040-0.002-0.059-0.005l0.002 0-4.431-0.7c-0.017-0.003-0.037-0.004-0.057-0.004-0.192 0-0.35 0.149-0.363 0.339l-0 0.001-0.288 4.371c-0.013 0.19-0.17 0.34-0.363 0.34-0.077 0-0.148-0.024-0.206-0.064l0.001 0.001-3.69-2.517c-0.057-0.040-0.128-0.063-0.205-0.063-0.134 0-0.251 0.072-0.314 0.18l-0.001 0.002-2.206 3.831c-0.064 0.11-0.181 0.182-0.315 0.182s-0.251-0.073-0.314-0.18l-0.001-0.002-2.207-3.831c-0.064-0.11-0.181-0.182-0.315-0.182-0.076 0-0.147 0.024-0.206 0.064l0.001-0.001-3.69 2.517c-0.057 0.040-0.129 0.063-0.205 0.063-0.192 0-0.35-0.149-0.363-0.339l-0-0.001-0.287-4.371c-0.013-0.19-0.17-0.34-0.363-0.34-0.020 0-0.040 0.002-0.059 0.005l0.002-0-4.43 0.7c-0.017 0.003-0.037 0.004-0.057 0.004-0.201 0-0.364-0.163-0.364-0.364 0-0.050 0.010-0.098 0.029-0.141l-0.001 0.002 1.673-4.045c0.017-0.041 0.028-0.089 0.028-0.139 0-0.165-0.109-0.304-0.259-0.348l-0.003-0.001-4.284-1.245c-0.153-0.045-0.262-0.184-0.262-0.349 0-0.108 0.047-0.205 0.122-0.271l0-0 3.299-2.932c0.075-0.067 0.122-0.164 0.122-0.272s-0.047-0.205-0.122-0.271l-0-0-3.299-2.933c-0.075-0.067-0.122-0.164-0.122-0.272 0-0.165 0.11-0.304 0.26-0.349l0.003-0.001 4.284-1.245c0.153-0.045 0.262-0.185 0.262-0.349 0-0.050-0.010-0.098-0.028-0.141l0.001 0.002-1.673-4.045c-0.017-0.041-0.028-0.089-0.028-0.139 0-0.201 0.163-0.364 0.364-0.364 0.020 0 0.040 0.002 0.059 0.005l-0.002-0 4.43 0.7c0.017 0.003 0.037 0.004 0.057 0.004 0.192 0 0.35-0.149 0.363-0.339l0-0.001 0.288-4.371c0.013-0.19 0.17-0.34 0.363-0.34 0.077 0 0.148 0.024 0.206 0.064l-0.001-0.001 3.69 2.517c0.057 0.040 0.128 0.063 0.205 0.063 0.134 0 0.251-0.072 0.314-0.18l0.001-0.002 2.206-3.83z"></path>
</symbol>
</defs>
</svg>

